<?xml version="1.0" standalone="no"?>
<!DOCTYPE svg PUBLIC "-//W3C//DTD SVG 20010904//EN"
 "http://www.w3.org/TR/2001/REC-SVG-20010904/DTD/svg10.dtd">
<svg version="1.0" xmlns="http://www.w3.org/2000/svg"
 width="541.000000pt" height="541.000000pt" viewBox="0 0 541.000000 541.000000"
 preserveAspectRatio="xMidYMid meet">
<metadata>
Created by potrace 1.14, written by Peter Selinger 2001-2017
</metadata>
<g transform="translate(0.000000,541.000000) scale(0.100000,-0.100000)"
fill="#000000" stroke="none">
<path d="M2507 4953 c-4 -3 -26 -7 -49 -9 -24 -1 -63 -6 -88 -9 -25 -4 -56 -8
-70 -10 -14 -2 -25 -4 -25 -5 0 -1 -13 -3 -30 -6 -36 -5 -70 -12 -70 -14 0 -1
-9 -3 -20 -5 -11 -2 -58 -15 -105 -29 -46 -13 -88 -22 -92 -20 -5 3 -8 0 -8
-5 0 -6 -9 -11 -20 -11 -11 0 -20 -4 -20 -8 0 -4 -8 -8 -17 -9 -10 -1 -40 -11
-66 -22 -27 -12 -55 -21 -63 -21 -8 0 -14 -4 -14 -9 0 -5 -12 -12 -27 -16 -15
-3 -30 -10 -33 -14 -3 -4 -30 -20 -60 -34 -85 -41 -275 -159 -334 -208 -6 -5
-22 -19 -36 -30 -113 -92 -290 -269 -345 -345 -11 -15 -29 -37 -40 -48 -12
-12 -21 -25 -22 -29 -1 -5 -12 -21 -26 -37 -14 -15 -37 -50 -52 -76 -15 -27
-30 -51 -34 -54 -4 -3 -13 -20 -20 -37 -8 -18 -17 -33 -22 -33 -5 0 -9 -6 -9
-12 0 -7 -7 -26 -16 -43 -33 -60 -76 -149 -79 -159 -1 -6 -9 -27 -17 -46 -24
-56 -31 -74 -34 -91 -2 -9 -9 -29 -15 -45 -7 -16 -13 -35 -15 -42 -5 -24 -25
-40 -58 -46 -19 -4 -39 -13 -46 -21 -7 -8 -17 -15 -22 -15 -12 0 -106 -62
-135 -89 -12 -12 -25 -21 -28 -21 -4 0 -13 -7 -21 -15 -9 -8 -12 -15 -8 -15 4
0 -7 -12 -24 -26 -18 -15 -32 -32 -32 -38 0 -6 -14 -27 -32 -46 -17 -19 -38
-50 -47 -70 -9 -19 -23 -46 -31 -60 -24 -43 -24 -47 -25 -366 0 -243 3 -317
14 -340 32 -68 52 -104 69 -122 6 -7 12 -17 12 -20 0 -4 11 -20 25 -35 14 -15
23 -27 21 -27 -3 0 24 -29 59 -65 36 -36 70 -65 75 -65 6 0 10 -4 10 -10 0 -5
6 -10 13 -10 6 0 25 -11 41 -25 16 -13 33 -22 37 -19 5 3 9 0 9 -5 0 -6 7 -11
15 -11 8 0 15 -4 15 -10 0 -5 3 -9 8 -8 4 1 27 -7 52 -19 60 -26 112 -43 137
-43 22 0 37 -19 85 -109 17 -31 44 -75 59 -99 16 -24 29 -45 29 -48 0 -7 64
-88 73 -92 4 -2 7 -10 7 -17 0 -7 3 -15 8 -17 9 -4 101 -113 125 -148 9 -13
17 -22 17 -20 0 3 42 -35 93 -85 52 -49 104 -97 116 -105 12 -8 36 -27 52 -41
16 -14 61 -48 101 -74 40 -27 78 -54 83 -61 6 -6 12 -11 15 -12 15 -2 46 -16
50 -23 13 -18 320 -163 320 -151 0 4 4 2 8 -4 6 -9 147 -59 154 -55 2 1 21 -5
43 -15 22 -9 41 -16 43 -15 1 0 3 1 5 0 5 -2 34 -8 57 -13 99 -22 119 -26 165
-32 22 -3 60 -8 85 -11 65 -9 529 -9 565 -1 31 8 58 13 110 23 17 3 39 8 50
10 47 9 81 16 97 21 10 3 30 8 45 10 15 3 33 10 40 16 7 6 13 8 13 5 0 -3 37
8 83 24 45 16 89 31 97 33 8 2 29 11 45 20 17 9 36 16 43 16 6 0 12 4 12 9 0
5 16 12 35 15 20 4 33 11 30 17 -4 5 1 9 10 9 16 0 73 28 85 41 3 3 20 11 38
18 17 8 32 17 32 22 0 5 6 9 14 9 7 0 19 7 26 15 7 9 15 13 18 11 2 -3 10 0
17 7 23 22 68 52 77 52 5 0 12 5 16 10 6 9 78 69 121 100 34 26 253 246 297
300 27 33 54 63 59 67 7 5 7 8 0 8 -5 0 -5 4 2 8 14 9 83 109 83 121 0 5 7 11
15 15 8 3 15 10 15 17 0 6 8 23 19 37 26 38 72 122 66 122 -3 0 4 9 16 21 11
11 23 18 26 16 5 -6 104 28 145 49 15 8 28 12 28 9 0 -3 18 6 40 20 22 14 42
25 44 25 9 0 75 48 106 76 67 62 100 95 100 100 0 2 11 17 24 32 33 36 76 101
76 112 0 6 4 10 9 10 5 0 12 11 15 25 4 14 11 25 17 25 6 0 8 4 4 9 -3 5 -1
12 5 16 6 4 8 11 5 16 -4 5 -3 15 2 22 8 12 12 26 18 62 2 11 4 21 5 23 2 1 4
7 5 12 1 6 3 11 5 13 16 19 17 289 1 362 -16 69 -52 169 -65 177 -6 4 -8 8 -4
8 4 0 -1 15 -12 33 -11 17 -25 43 -32 57 -7 14 -18 31 -25 38 -7 7 -13 17 -13
21 0 10 -137 151 -147 151 -5 0 -20 11 -34 24 -22 21 -115 78 -122 74 -1 0
-13 3 -27 7 -31 9 -61 35 -54 46 3 5 1 9 -4 9 -8 0 -13 14 -28 78 -1 8 -10 30
-20 50 -9 20 -17 44 -17 52 0 8 -5 18 -10 22 -6 3 -12 15 -13 25 -3 21 -60
137 -85 174 -10 14 -16 29 -12 32 3 4 -2 9 -11 13 -9 3 -16 13 -16 21 0 15
-69 126 -82 131 -5 2 -8 8 -8 14 0 8 -40 67 -65 94 -5 6 -21 26 -35 44 -14 18
-40 48 -57 67 -18 18 -31 33 -28 33 5 0 -110 114 -184 183 -29 26 -54 47 -57
47 -3 0 -17 12 -32 26 -15 14 -39 32 -54 40 -16 8 -28 19 -28 24 0 6 -7 10
-15 10 -8 0 -15 5 -15 10 0 6 -6 10 -13 10 -7 0 -22 8 -33 18 -10 9 -31 23
-46 31 -16 8 -28 18 -28 23 0 4 -9 8 -19 8 -11 0 -22 4 -26 9 -8 13 -116 71
-132 71 -7 0 -13 3 -13 8 0 4 -15 13 -32 20 -18 8 -45 20 -60 28 -16 8 -28 13
-28 10 0 -3 -12 1 -27 9 -15 8 -30 12 -35 9 -4 -3 -8 -1 -8 4 0 5 -37 20 -82
32 -46 13 -87 26 -93 29 -10 6 -29 11 -55 15 -9 1 -20 5 -25 8 -6 3 -32 9 -60
13 -27 5 -57 10 -65 11 -8 2 -28 6 -45 8 -16 3 -48 8 -70 12 -22 3 -56 8 -75
9 -19 1 -35 3 -35 4 0 7 -193 5 -202 -2 -7 -5 -13 -6 -13 -1 0 5 -25 9 -55 9
-30 0 -55 -4 -55 -9 0 -5 -6 -3 -13 3 -8 6 -17 8 -20 4z"/>
</g>
</svg>
